<mxfile host="app.diagrams.net" agent="Mozilla/5.0 (Windows NT 10.0; Win64; x64) AppleWebKit/537.36 (KHTML, like Gecko) Chrome/140.0.0.0 Safari/537.36" version="28.2.4">
  <diagram name="Trang-1" id="BzPv-Vr4TObcP-jDGtCD">
    <mxGraphModel dx="670" dy="398" grid="1" gridSize="10" guides="1" tooltips="1" connect="1" arrows="1" fold="1" page="1" pageScale="1" pageWidth="827" pageHeight="1169" math="0" shadow="0">
      <root>
        <mxCell id="0" />
        <mxCell id="1" parent="0" />
        <mxCell id="MkqTi5Zi5nPM5DOO7IHD-1" value="Người dùng" style="shape=umlActor;verticalLabelPosition=bottom;verticalAlign=top;html=1;outlineConnect=0;" vertex="1" parent="1">
          <mxGeometry x="130" y="180" width="30" height="60" as="geometry" />
        </mxCell>
        <mxCell id="MkqTi5Zi5nPM5DOO7IHD-2" value="Hệ thống xác thực người dùng" style="shape=rect;html=1;verticalAlign=top;fontStyle=1;whiteSpace=wrap;align=center;" vertex="1" parent="1">
          <mxGeometry x="200" y="80" width="440" height="280" as="geometry" />
        </mxCell>
        <mxCell id="MkqTi5Zi5nPM5DOO7IHD-3" value="&lt;br&gt;extension points&lt;br&gt;&lt;i&gt;&lt;font style=&quot;font-size: 10px;&quot;&gt;Muốn tạo tài khoản mới&lt;/font&gt;&lt;/i&gt;&lt;div&gt;&lt;i&gt;&lt;font style=&quot;font-size: 10px;&quot;&gt;Quên mật khẩu&lt;/font&gt;&lt;/i&gt;&lt;/div&gt;" style="html=1;shape=mxgraph.sysml.useCaseExtPt;whiteSpace=wrap;align=center;" vertex="1" parent="1">
          <mxGeometry x="240" y="120" width="140" height="90" as="geometry" />
        </mxCell>
        <mxCell id="MkqTi5Zi5nPM5DOO7IHD-4" value="1.1 Đăng nhập" style="resizable=0;html=1;verticalAlign=middle;align=center;labelBackgroundColor=none;fontStyle=1;" connectable="0" vertex="1" parent="MkqTi5Zi5nPM5DOO7IHD-3">
          <mxGeometry x="70" y="19.125" as="geometry" />
        </mxCell>
        <mxCell id="MkqTi5Zi5nPM5DOO7IHD-5" value="1.2 Đăng ký" style="ellipse;whiteSpace=wrap;html=1;" vertex="1" parent="1">
          <mxGeometry x="460" y="120" width="140" height="70" as="geometry" />
        </mxCell>
        <mxCell id="MkqTi5Zi5nPM5DOO7IHD-6" value="1.3 Đặt lại mật khẩu" style="ellipse;whiteSpace=wrap;html=1;" vertex="1" parent="1">
          <mxGeometry x="460" y="240" width="140" height="70" as="geometry" />
        </mxCell>
        <mxCell id="MkqTi5Zi5nPM5DOO7IHD-7" value="1.4 Đăng xuất" style="ellipse;whiteSpace=wrap;html=1;" vertex="1" parent="1">
          <mxGeometry x="240" y="240" width="140" height="70" as="geometry" />
        </mxCell>
        <mxCell id="MkqTi5Zi5nPM5DOO7IHD-8" value="" style="edgeStyle=none;html=1;endArrow=none;verticalAlign=bottom;rounded=0;" edge="1" parent="1" source="MkqTi5Zi5nPM5DOO7IHD-1" target="MkqTi5Zi5nPM5DOO7IHD-3">
          <mxGeometry width="160" relative="1" as="geometry">
            <mxPoint x="270" y="210" as="sourcePoint" />
            <mxPoint x="430" y="210" as="targetPoint" />
          </mxGeometry>
        </mxCell>
        <mxCell id="MkqTi5Zi5nPM5DOO7IHD-9" value="" style="edgeStyle=none;html=1;endArrow=none;verticalAlign=bottom;rounded=0;" edge="1" parent="1" source="MkqTi5Zi5nPM5DOO7IHD-1" target="MkqTi5Zi5nPM5DOO7IHD-7">
          <mxGeometry width="160" relative="1" as="geometry">
            <mxPoint x="170" y="197" as="sourcePoint" />
            <mxPoint x="250" y="180" as="targetPoint" />
          </mxGeometry>
        </mxCell>
        <mxCell id="MkqTi5Zi5nPM5DOO7IHD-10" value="&amp;lt;&amp;lt;extend&amp;gt;&amp;gt;" style="edgeStyle=none;html=1;startArrow=open;endArrow=none;startSize=12;verticalAlign=bottom;dashed=1;labelBackgroundColor=none;rounded=0;" edge="1" parent="1" source="MkqTi5Zi5nPM5DOO7IHD-3" target="MkqTi5Zi5nPM5DOO7IHD-5">
          <mxGeometry width="160" relative="1" as="geometry">
            <mxPoint x="370" y="330" as="sourcePoint" />
            <mxPoint x="530" y="330" as="targetPoint" />
          </mxGeometry>
        </mxCell>
        <mxCell id="MkqTi5Zi5nPM5DOO7IHD-11" value="&amp;lt;&amp;lt;extend&amp;gt;&amp;gt;" style="edgeStyle=none;html=1;startArrow=open;endArrow=none;startSize=12;verticalAlign=bottom;dashed=1;labelBackgroundColor=none;rounded=0;" edge="1" parent="1" source="MkqTi5Zi5nPM5DOO7IHD-3" target="MkqTi5Zi5nPM5DOO7IHD-6">
          <mxGeometry width="160" relative="1" as="geometry">
            <mxPoint x="390" y="165" as="sourcePoint" />
            <mxPoint x="470" y="165" as="targetPoint" />
          </mxGeometry>
        </mxCell>
        <mxCell id="MkqTi5Zi5nPM5DOO7IHD-13" value="Người dùng" style="shape=umlActor;verticalLabelPosition=bottom;verticalAlign=top;html=1;outlineConnect=0;" vertex="1" parent="1">
          <mxGeometry x="680" y="180" width="30" height="60" as="geometry" />
        </mxCell>
        <mxCell id="MkqTi5Zi5nPM5DOO7IHD-14" value="" style="edgeStyle=none;html=1;endArrow=none;verticalAlign=bottom;rounded=0;" edge="1" parent="1" source="MkqTi5Zi5nPM5DOO7IHD-13" target="MkqTi5Zi5nPM5DOO7IHD-5">
          <mxGeometry width="160" relative="1" as="geometry">
            <mxPoint x="170" y="216" as="sourcePoint" />
            <mxPoint x="250" y="194" as="targetPoint" />
          </mxGeometry>
        </mxCell>
        <mxCell id="MkqTi5Zi5nPM5DOO7IHD-15" value="" style="edgeStyle=none;html=1;endArrow=none;verticalAlign=bottom;rounded=0;" edge="1" parent="1" source="MkqTi5Zi5nPM5DOO7IHD-13" target="MkqTi5Zi5nPM5DOO7IHD-6">
          <mxGeometry width="160" relative="1" as="geometry">
            <mxPoint x="690" y="215" as="sourcePoint" />
            <mxPoint x="598" y="184" as="targetPoint" />
          </mxGeometry>
        </mxCell>
      </root>
    </mxGraphModel>
  </diagram>
</mxfile>
